<svg xmlns="http://www.w3.org/2000/svg" viewBox="0 0 520 520"><g fill="none" stroke="#000" stroke-width="2.4" stroke-linejoin="round" stroke-linecap="round"><path d="M260 90 q-70 0 -120 50 t-50 120 t50 120 t120 50 t120 -50 t50 -120 t-50 -120 t-120 -50Z"/><path d="M160 180 q-20 30 -20 80 t20 80"/><path d="M360 180 q20 30 20 80 t-20 80"/><path d="M180 380 q40 20 80 20 t80 -20"/><path d="M180 140 q40 -20 80 -20 t80 20"/><path d="M220 130 l40 -20 l40 20 l-40 10Z"/></g><text x="260" y="290" font-size="64" text-anchor="middle" font-family="serif">C+D</text><text x="260" y="330" font-size="18" text-anchor="middle" font-family="serif">Est. 2025</text></svg>