<svg xmlns="http://www.w3.org/2000/svg" viewBox="0 0 840 420"><g fill="none" stroke="#000" stroke-width="3"><path d="M120 360 L260 160 L400 360 Z"/><path d="M300 360 L460 120 L620 360 Z"/><path d="M460 360 L620 180 L780 360 Z"/><g stroke-width="2"><path d="M220 360 L240 300 L260 360 M240 300 L228 320 L252 320"/><path d="M380 360 L398 290 L416 360 M398 290 L386 312 L410 312"/><path d="M600 360 L618 292 L636 360 M618 292 L606 314 L630 314"/><path d="M740 360 L756 300 L772 360 M756 300 L746 318 L766 318"/></g></g></svg>