<svg xmlns="http://www.w3.org/2000/svg" viewBox="0 0 840 420"><g fill="none" stroke="#000" stroke-width="3"><path d="M112 360 L252 160 L392 360 Z"/><path d="M292 360 L452 120 L612 360 Z"/><path d="M452 360 L612 180 L772 360 Z"/><g stroke-width="2"><path d="M212 360 L232 300 L252 360 M232 300 L220 320 L244 320"/><path d="M372 360 L390 290 L408 360 M390 290 L378 312 L402 312"/><path d="M592 360 L610 292 L628 360 M610 292 L598 314 L622 314"/><path d="M732 360 L748 300 L764 360 M748 300 L738 318 L758 318"/></g></g></svg>