<svg xmlns="http://www.w3.org/2000/svg" viewBox="0 0 840 420"><g fill="none" stroke="#000" stroke-width="3"><path d="M96 360 L236 160 L376 360 Z"/><path d="M276 360 L436 120 L596 360 Z"/><path d="M436 360 L596 180 L756 360 Z"/><g stroke-width="2"><path d="M196 360 L216 300 L236 360 M216 300 L204 320 L228 320"/><path d="M356 360 L374 290 L392 360 M374 290 L362 312 L386 312"/><path d="M576 360 L594 292 L612 360 M594 292 L582 314 L606 314"/><path d="M716 360 L732 300 L748 360 M732 300 L722 318 L742 318"/></g></g></svg>