<svg xmlns="http://www.w3.org/2000/svg" viewBox="0 0 840 420"><g fill="none" stroke="#000" stroke-width="3"><path d="M64 360 L204 160 L344 360 Z"/><path d="M244 360 L404 120 L564 360 Z"/><path d="M404 360 L564 180 L724 360 Z"/><g stroke-width="2"><path d="M164 360 L184 300 L204 360 M184 300 L172 320 L196 320"/><path d="M324 360 L342 290 L360 360 M342 290 L330 312 L354 312"/><path d="M544 360 L562 292 L580 360 M562 292 L550 314 L574 314"/><path d="M684 360 L700 300 L716 360 M700 300 L690 318 L710 318"/></g></g></svg>