<svg xmlns="http://www.w3.org/2000/svg" viewBox="0 0 840 420"><g fill="none" stroke="#000" stroke-width="3"><path d="M80 360 L220 160 L360 360 Z"/><path d="M260 360 L420 120 L580 360 Z"/><path d="M420 360 L580 180 L740 360 Z"/><g stroke-width="2"><path d="M180 360 L200 300 L220 360 M200 300 L188 320 L212 320"/><path d="M340 360 L358 290 L376 360 M358 290 L346 312 L370 312"/><path d="M560 360 L578 292 L596 360 M578 292 L566 314 L590 314"/><path d="M700 360 L716 300 L732 360 M716 300 L706 318 L726 318"/></g></g></svg>