<svg xmlns="http://www.w3.org/2000/svg" viewBox="0 0 840 420"><g fill="none" stroke="#000" stroke-width="3"><path d="M48 360 L188 160 L328 360 Z"/><path d="M228 360 L388 120 L548 360 Z"/><path d="M388 360 L548 180 L708 360 Z"/><g stroke-width="2"><path d="M148 360 L168 300 L188 360 M168 300 L156 320 L180 320"/><path d="M308 360 L326 290 L344 360 M326 290 L314 312 L338 312"/><path d="M528 360 L546 292 L564 360 M546 292 L534 314 L558 314"/><path d="M668 360 L684 300 L700 360 M684 300 L674 318 L694 318"/></g></g></svg>