<svg xmlns="http://www.w3.org/2000/svg" viewBox="0 0 840 420"><g fill="none" stroke="#000" stroke-width="3"><path d="M104 360 L244 160 L384 360 Z"/><path d="M284 360 L444 120 L604 360 Z"/><path d="M444 360 L604 180 L764 360 Z"/><g stroke-width="2"><path d="M204 360 L224 300 L244 360 M224 300 L212 320 L236 320"/><path d="M364 360 L382 290 L400 360 M382 290 L370 312 L394 312"/><path d="M584 360 L602 292 L620 360 M602 292 L590 314 L614 314"/><path d="M724 360 L740 300 L756 360 M740 300 L730 318 L750 318"/></g></g></svg>