<svg xmlns="http://www.w3.org/2000/svg" viewBox="0 0 840 420"><g fill="none" stroke="#000" stroke-width="3"><path d="M72 360 L212 160 L352 360 Z"/><path d="M252 360 L412 120 L572 360 Z"/><path d="M412 360 L572 180 L732 360 Z"/><g stroke-width="2"><path d="M172 360 L192 300 L212 360 M192 300 L180 320 L204 320"/><path d="M332 360 L350 290 L368 360 M350 290 L338 312 L362 312"/><path d="M552 360 L570 292 L588 360 M570 292 L558 314 L582 314"/><path d="M692 360 L708 300 L724 360 M708 300 L698 318 L718 318"/></g></g></svg>