<svg xmlns="http://www.w3.org/2000/svg" viewBox="0 0 840 420"><g fill="none" stroke="#000" stroke-width="3"><path d="M56 360 L196 160 L336 360 Z"/><path d="M236 360 L396 120 L556 360 Z"/><path d="M396 360 L556 180 L716 360 Z"/><g stroke-width="2"><path d="M156 360 L176 300 L196 360 M176 300 L164 320 L188 320"/><path d="M316 360 L334 290 L352 360 M334 290 L322 312 L346 312"/><path d="M536 360 L554 292 L572 360 M554 292 L542 314 L566 314"/><path d="M676 360 L692 300 L708 360 M692 300 L682 318 L702 318"/></g></g></svg>