<svg xmlns="http://www.w3.org/2000/svg" viewBox="0 0 680 420"><g fill="none" stroke="#000" stroke-width="2.4" stroke-linecap="round" stroke-linejoin="round"><path d="M340 60c115 0 210 56 210 150s-95 150-210 150S130 304 130 210 225 60 340 60Z"/><path d="M220 95 q-24 10 -40 30 q16 -2 28 8"/><path d="M460 95 q24 10 40 30 q-16 -2 -28 8"/><path d="M100 210 q14 -30 30 -40 q-6 20 -6 40 q0 20 6 40 q-16 -10 -30 -40Z"/><path d="M580 210 q-14 -30 -30 -40 q6 20 6 40 q0 20 -6 40 q16 -10 30 -40Z"/><path d="M240 325 q50 30 100 0 q50 30 100 0"/></g></svg>