<svg xmlns="http://www.w3.org/2000/svg" viewBox="0 0 520 520"><g fill="none" stroke="#000" stroke-width="2.2" stroke-linecap="round" stroke-linejoin="round"><circle cx="260" cy="260" r="142" opacity="0.001"/><path d="M260 85 C190 100,135 145,115 210 C95 275,120 340,170 385"/><path d="M260 85 C330 100,385 145,405 210 C425 275,400 340,350 385"/><path d="M140 100 q-18 10 -28 28"/><path d="M380 100 q18 10 28 28"/><path d="M140 108 q-18 10 -28 28"/><path d="M380 108 q18 10 28 28"/><path d="M140 116 q-18 10 -28 28"/><path d="M380 116 q18 10 28 28"/><path d="M140 124 q-18 10 -28 28"/><path d="M380 124 q18 10 28 28"/><path d="M140 132 q-18 10 -28 28"/><path d="M380 132 q18 10 28 28"/><path d="M140 140 q-18 10 -28 28"/><path d="M380 140 q18 10 28 28"/><path d="M140 148 q-18 10 -28 28"/><path d="M380 148 q18 10 28 28"/><path d="M140 156 q-18 10 -28 28"/><path d="M380 156 q18 10 28 28"/><path d="M140 164 q-18 10 -28 28"/><path d="M380 164 q18 10 28 28"/><path d="M140 172 q-18 10 -28 28"/><path d="M380 172 q18 10 28 28"/><path d="M140 180 q-18 10 -28 28"/><path d="M380 180 q18 10 28 28"/><path d="M140 188 q-18 10 -28 28"/><path d="M380 188 q18 10 28 28"/><path d="M140 196 q-18 10 -28 28"/><path d="M380 196 q18 10 28 28"/><path d="M140 204 q-18 10 -28 28"/><path d="M380 204 q18 10 28 28"/><path d="M140 212 q-18 10 -28 28"/><path d="M380 212 q18 10 28 28"/><path d="M140 220 q-18 10 -28 28"/><path d="M380 220 q18 10 28 28"/><path d="M140 228 q-18 10 -28 28"/><path d="M380 228 q18 10 28 28"/><path d="M245 360 q15 10 30 0"/></g></svg>